<?xml version="1.0" encoding="utf-8"?>
<!-- Generator: Adobe Illustrator 25.2.3, SVG Export Plug-In . SVG Version: 6.00 Build 0)  -->
<svg version="1.1" id="Ebene_1" xmlns="http://www.w3.org/2000/svg" xmlns:xlink="http://www.w3.org/1999/xlink" x="0px" y="0px"
	 viewBox="0 0 31.1 31.1" style="enable-background:new 0 0 31.1 31.1;" xml:space="preserve">
<style type="text/css">
	.st0{fill:#FFFFFF;}
</style>
<path class="st0" d="M25.1,31.1H6c-3.3,0-6-2.7-6-6V6c0-3.3,2.7-6,6-6h19.1c3.3,0,6,2.7,6,6v19.1C31.1,28.4,28.4,31.1,25.1,31.1z
	 M6,2C3.8,2,2,3.8,2,6v19.1c0,2.2,1.8,4,4,4h19.1c2.2,0,4-1.8,4-4V6c0-2.2-1.8-4-4-4H6z"/>
<rect x="6.4" y="6.1" class="st0" width="3.6" height="20.1"/>
<path class="st0" d="M10.1,26.5H6.4c-0.2,0-0.4-0.2-0.4-0.4l0,0V6.1c0-0.2,0.2-0.4,0.4-0.4h3.6c0.2,0,0.4,0.2,0.4,0.4l0,0v20.1
	C10.5,26.4,10.3,26.5,10.1,26.5C10.1,26.5,10.1,26.5,10.1,26.5z M6.8,25.8h2.9V6.5H6.8L6.8,25.8z"/>
<rect x="13.5" y="12.5" class="st0" width="3.6" height="13.7"/>
<path class="st0" d="M17.2,26.5h-3.6c-0.2,0-0.4-0.2-0.4-0.3c0,0,0,0,0,0V12.5c0-0.2,0.2-0.4,0.4-0.4h3.6c0.2,0,0.4,0.2,0.4,0.4
	v13.7C17.6,26.4,17.4,26.5,17.2,26.5C17.2,26.5,17.2,26.5,17.2,26.5z M13.9,25.8h2.9V12.9h-2.9V25.8z"/>
<rect x="20.6" y="8.7" class="st0" width="3.6" height="17.4"/>
<path class="st0" d="M24.3,26.5h-3.6c-0.2,0-0.4-0.2-0.4-0.3c0,0,0,0,0,0V8.7c0-0.2,0.2-0.4,0.4-0.4l0,0h3.6c0.2,0,0.4,0.2,0.4,0.4
	c0,0,0,0,0,0v17.5C24.6,26.3,24.5,26.5,24.3,26.5C24.3,26.5,24.3,26.5,24.3,26.5z M21,25.8h2.9V9.1H21V25.8z"/>
</svg>
